# xmcd
#
# Track frame offsets: 
#        150
#        13722
#        23285
#        38115
#        51827
#        66495
#        78665
#        97080
#        105765
#        110637
#        120430
#        130220
#        139917
#        150457
#        159630
#        173455
#        189092
#        201902
#        213172
#        230570
#        248085
#
# Disc length: 3433 seconds
#
# Revision: 0
# Processed by: cddbd v1.5.2PL0 Copyright (c) Steve Scherf et al.
# Submitted via: ExactAudioCopy v0.95b3
#
DISCID=0f0d6715
DTITLE=Jay and The Americans  - Live and Unreleased (1993)  FLAC 
DYEAR=1900
DGENRE=
TTITLE0=Only In America
TTITLE1=She Cried
TTITLE2=This Magic Moment
TTITLE3=Cara, Mia
TTITLE4=Walkin' In The Rain
TTITLE5=Let's Lock The Door
TTITLE6=Come A Little Bit Closer
TTITLE7=Some Enchanted Evening
TTITLE8=Come A Little Bit Closer (Encore)
TTITLE9=No More (by The Two Chaps, 1958)
TTITLE10=Forgive Me (by The Two Chaps, 1958)
TTITLE11=Wisdom Of A Fool (by Jay and The Americans, 1960)
TTITLE12=A Time And Place (by The Empires, 1962)
TTITLE13=Punch Your Nose (by The Empires, 1962)
TTITLE14=Every Time You Walk In The Room (by Jay and The Americans, 1975
TTITLE14=)
TTITLE15=I'd Build A Bridge (by Jay and The Americans, 1975)
TTITLE16=Running Scared (by Jay Black, 1975)
TTITLE17=Dolphins (by Jay Black, 1975)
TTITLE18=Love Is In The Air (by Jay Black, 1978)
TTITLE19=Don't Go Please Stay (by Jay Black, 1978)
TTITLE20=Only In America (by The Drifters, 1963)
EXTD=
EXTT0=
EXTT1=
EXTT2=
EXTT3=
EXTT4=
EXTT5=
EXTT6=
EXTT7=
EXTT8=
EXTT9=
EXTT10=
EXTT11=
EXTT12=
EXTT13=
EXTT14=
EXTT15=
EXTT16=
EXTT17=
EXTT18=
EXTT19=
EXTT20=
PLAYORDER=
